# xmcd CD database file
#
# Track frame offsets:
#	150
#	14232
#	33355
#	49294
#	73668
#	86008
#	102878
#	115224
#	131855
#	146840
#	172358
#	191172
#	208649
#
# Disc length: 3009 seconds
#
# Revision: 1
# Processed by: cddbd v1.5.2PL0 Copyright (c) Steve Scherf et al.
# Submitted via: CDex 2.21
#
DISCID=d10bbf0d
DTITLE=Adrienne Kirkey - The Child In My Heart
DYEAR=2001
DGENRE=New Age
TTITLE0=The Lighthouse
TTITLE1=The Child In My Heart
TTITLE2=Flander's Fields
TTITLE3=Lock-keeper
TTITLE4=The Wedding Walz
TTITLE5=Sally Ann
TTITLE6=It's Too Late
TTITLE7=Healing Hands
TTITLE8=Find Your Way Home
TTITLE9=Lies
TTITLE10=The Reason We Hope
TTITLE11=You Never Told Me
TTITLE12=Danny Boy
EXTD=YEAR: 2001
EXTT0=
EXTT1=
EXTT2=
EXTT3=
EXTT4=
EXTT5=
EXTT6=
EXTT7=
EXTT8=
EXTT9=
EXTT10=
EXTT11=
EXTT12=
PLAYORDER=
